<svg width="60" height="60" viewBox="0 0 60 60" fill="none" xmlns="http://www.w3.org/2000/svg">
<path d="M30 0.5C46.2924 0.5 59.5 13.7076 59.5 30C59.5 46.2924 46.2924 59.5 30 59.5C13.7076 59.5 0.5 46.2924 0.5 30C0.5 13.7076 13.7076 0.5 30 0.5Z" fill="white"/>
<path d="M30 0.5C46.2924 0.5 59.5 13.7076 59.5 30C59.5 46.2924 46.2924 59.5 30 59.5C13.7076 59.5 0.5 46.2924 0.5 30C0.5 13.7076 13.7076 0.5 30 0.5Z" stroke="#E3E5E8"/>
<path d="M37.7595 38.2487C36.803 39.6126 35.7888 40.9435 34.2444 40.9655C32.7001 40.9985 32.2045 40.0966 30.4527 40.0966C28.6894 40.0966 28.1477 40.9435 26.684 40.9985C25.1742 41.0535 24.0333 39.5466 23.0652 38.2157C21.0944 35.4989 19.5846 30.4942 21.613 27.1285C22.6157 25.4566 24.4136 24.4006 26.3613 24.3676C27.8365 24.3456 29.2426 25.3246 30.1531 25.3246C31.052 25.3246 32.7577 24.1477 34.5441 24.3236C35.2932 24.3566 37.3907 24.6096 38.7392 26.5015C38.6354 26.5675 36.2382 27.9094 36.2613 30.6922C36.2959 34.014 39.3154 35.1249 39.35 35.1359C39.3154 35.2129 38.8659 36.7198 37.7595 38.2487ZM31.1788 20.6499C32.0201 19.737 33.4146 19.044 34.5671 19C34.717 20.2869 34.1753 21.5848 33.3685 22.5088C32.5733 23.4437 31.2595 24.1697 29.9687 24.0707C29.7958 22.8057 30.4412 21.4858 31.1788 20.6499Z" fill="black"/>
</svg>
