<svg width="60" height="60" viewBox="0 0 60 60" fill="none" xmlns="http://www.w3.org/2000/svg">
<path d="M30 0.5C46.2924 0.5 59.5 13.7076 59.5 30C59.5 46.2924 46.2924 59.5 30 59.5C13.7076 59.5 0.5 46.2924 0.5 30C0.5 13.7076 13.7076 0.5 30 0.5Z" fill="white"/>
<path d="M30 0.5C46.2924 0.5 59.5 13.7076 59.5 30C59.5 46.2924 46.2924 59.5 30 59.5C13.7076 59.5 0.5 46.2924 0.5 30C0.5 13.7076 13.7076 0.5 30 0.5Z" stroke="#E3E5E8"/>
<path d="M41 30.2548C41 29.4392 40.9265 28.6589 40.7901 27.9084H30.2343V32.2077L36.3136 32.209C36.067 33.6395 35.2735 34.8589 34.0576 35.6719V38.4612H37.6764C39.7894 36.5187 41 33.6473 41 30.2548Z" fill="#4285F4"/>
<path d="M34.0588 35.6714C33.0514 36.3463 31.7543 36.741 30.2367 36.741C27.3053 36.741 24.8185 34.779 23.9279 32.1343H20.195V35.0109C22.0444 38.6561 25.8455 41.1575 30.2367 41.1575C33.2718 41.1575 35.8216 40.1661 37.6775 38.4594L34.0588 35.6714Z" fill="#34A853"/>
<path d="M23.5762 30.0009C23.5762 29.2583 23.7008 28.5405 23.9277 27.8656V24.989H20.1949C19.4302 26.4964 19 28.1978 19 30.0009C19 31.804 19.4315 33.5055 20.1949 35.0128L23.9277 32.1362C23.7008 31.4614 23.5762 30.7435 23.5762 30.0009Z" fill="#FABB05"/>
<path d="M30.2367 23.2588C31.8933 23.2588 33.3767 23.8255 34.548 24.9329L37.7549 21.7502C35.8071 19.9484 33.2679 18.8423 30.2367 18.8423C25.8468 18.8423 22.0444 21.3437 20.195 24.9889L23.9279 27.8655C24.8185 25.2208 27.3053 23.2588 30.2367 23.2588Z" fill="#E94235"/>
</svg>
