<svg width="60" height="60" viewBox="0 0 60 60" fill="none" xmlns="http://www.w3.org/2000/svg">
<path d="M0 30C0 13.4315 13.4315 0 30 0C46.5685 0 60 13.4315 60 30C60 46.5685 46.5685 60 30 60C13.4315 60 0 46.5685 0 30Z" fill="#FFE617"/>
<path fill-rule="evenodd" clip-rule="evenodd" d="M29.9997 20C23.9255 20 19 23.828 19 28.5533C19 31.5891 21.0399 34.254 24.1034 35.7749L23.0671 39.5838C23.0479 39.6397 23.0452 39.6999 23.0592 39.7573C23.0733 39.8147 23.1034 39.8671 23.1463 39.9084C23.1999 39.9633 23.2729 39.996 23.3502 39.9997C23.4275 40.0033 23.5033 39.9777 23.562 39.928L28.0191 36.9642C28.6751 37.058 29.3369 37.1058 29.9997 37.1071C36.0745 37.1071 41 33.2786 41 28.5513C41 23.8239 36.0745 20 29.9997 20Z" fill="#47292B"/>
</svg>
