<svg width="53" height="74" viewBox="0 0 53 74" fill="none" xmlns="http://www.w3.org/2000/svg">
<g clip-path="url(#clip0_3908_29144)">
<path d="M21.6188 36.7097C24.1974 33.827 26.8125 32.1878 29.1359 28.8375C30.3705 27.0595 30.756 24.9733 30.3862 22.8614C30.0111 20.734 28.3754 19.1668 26.2083 18.8379C24.9893 18.6529 23.8276 18.8276 22.6399 19.1102C20.702 19.5727 19.0871 20.5182 17.6545 21.8645C15.4301 23.9559 14.8258 25.5951 12.1065 27.6967C9.55395 29.6699 6.07931 29.9525 3.34439 28.1797C0.609481 26.407 -0.281319 23.0309 0.0833357 19.8605C0.708459 14.4085 4.05808 9.34189 8.44956 6.08406C14.383 1.68034 21.7855 -0.416183 29.1776 0.0668392C32.6731 0.298073 35.9914 1.02774 39.1639 2.45626C46.3528 5.68839 51.6976 11.7673 52.776 19.6292C53.7293 26.5971 51.6664 33.529 47.0926 38.8936C45.1026 41.2265 42.8313 43.1997 40.2631 44.9159C38.2575 46.2571 36.2259 47.3567 34.1265 48.554C31.402 50.1007 28.9119 51.8375 26.526 53.8519C25.7759 54.4839 25.057 55.0594 24.1818 55.491C22.395 56.3749 20.3321 56.0974 18.8787 54.7665C17.9879 53.9546 17.394 52.9629 17.0294 51.8119C16.0083 48.59 16.4928 45.1986 17.9045 42.1617C18.8422 40.1525 20.1081 38.4003 21.624 36.7097H21.6188Z" fill="#B6E2FF"/>
<path d="M33.8869 73.1059C33.7983 74.8685 30.8915 73.5479 29.6048 73.1573C26.0832 72.0885 24.3954 73.3475 21.1031 73.1111C19.0975 72.9672 17.1909 72.3454 15.701 71.03C12.7733 68.4504 12.6275 64.1135 15.1748 61.1948C16.7845 59.3501 18.8631 58.0552 21.2594 57.3358C25.2966 56.1282 30.0007 56.4263 33.4076 58.9904C34.4443 59.7715 35.2621 60.7426 35.6476 61.9707C36.4447 64.5143 35.5799 66.5132 33.8921 68.399C33.6472 68.6714 33.4493 68.9129 33.4649 69.3137C33.5326 70.7268 33.9389 71.9652 33.8816 73.1059H33.8869Z" fill="#B6E2FF"/>
</g>
<defs>
<clipPath id="clip0_3908_29144">
<rect width="53" height="74" fill="white"/>
</clipPath>
</defs>
</svg>
